<svg width="30" height="30" viewBox="0 0 30 30" fill="none"
     xmlns="http://www.w3.org/2000/svg">
    <path d="M15 1.06116C14.5142 1.06116 14.1211 1.45426 14.1211 1.94006V4.57678C14.1211 5.06258 14.5142 5.45569 15 5.45569C15.4858 5.45569 15.8789 5.06258 15.8789 4.57678V1.94006C15.8789 1.45426 15.4858 1.06116 15 1.06116Z"
          fill="#FFDD2D"/>
    <path d="M10.348 6.59205L8.5902 4.83424C8.24684 4.49094 7.69067 4.49094 7.34736 4.83424C7.00406 5.17754 7.00406 5.73377 7.34736 6.07708L9.10518 7.83489C9.44848 8.17819 10.0047 8.17819 10.348 7.83489C10.6913 7.49159 10.6913 6.93536 10.348 6.59205Z"
          fill="#FFDD2D"/>
    <path d="M22.6527 4.83424C22.3094 4.49094 21.7532 4.49094 21.4099 4.83424L19.6521 6.59205C19.3088 6.93536 19.3088 7.49159 19.6521 7.83489C19.9954 8.17819 20.5516 8.17819 20.8949 7.83489L22.6527 6.07708C22.996 5.73377 22.996 5.17754 22.6527 4.83424Z"
          fill="#FFDD2D"/>
    <path d="M29.1211 13.3658H26.4258V25.6705H29.1211C29.6069 25.6705 30 25.2774 30 24.7916V14.2448C30 13.759 29.6069 13.3658 29.1211 13.3658Z"
          fill="url(#paint0_linear_1_376)"/>
    <path d="M0.878906 13.3658C0.393105 13.3658 0 13.759 0 14.2448V24.7916C0 25.2774 0.393105 25.6705 0.878906 25.6705H3.57422V13.3658H0.878906Z"
          fill="url(#paint1_linear_1_376)"/>
    <path d="M14.3288 14.2448C13.6584 14.2448 13.0559 14.6172 12.7564 15.2164L10.0811 20.5687C10.5291 20.7652 11.0029 20.8648 11.487 20.8648C12.8251 20.8648 14.0293 20.119 14.6292 18.9174L15.2077 17.7604H16.9089C17.3715 17.7604 17.8247 17.9483 18.1517 18.2754L24.668 24.7916V14.2448H14.3288Z"
          fill="url(#paint2_linear_1_376)"/>
    <path d="M16.9089 19.5182H16.2943L16.2436 19.6198C15.4134 21.2801 13.7943 22.4523 11.9441 22.6036C10.5827 22.7149 9.63932 22.3233 8.52065 21.8145C8.06572 21.6076 7.86779 21.0641 8.09127 20.6171L11.1836 14.431C11.7791 13.2395 12.9969 12.4869 14.3288 12.4869H18.1218C18.3652 11.9476 18.5156 11.3589 18.5156 10.7291C18.5156 10.2433 18.1225 9.85016 17.6367 9.85016H10.8132C9.81422 9.85016 8.90109 10.4145 8.45432 11.308L7.66846 12.8797C7.51951 13.1776 7.21518 13.3658 6.88213 13.3658H5.33203V25.6705H9.36264L11.8526 28.1604C12.5743 28.8822 13.6139 29.11 14.5107 28.8102L22.0167 26.4506C22.4653 26.3244 22.8434 26.0776 23.1519 25.7611L16.9089 19.5182Z"
          fill="url(#paint3_linear_1_376)"/>
    <defs>
        <linearGradient id="paint0_linear_1_376" x1="15" y1="1.06116" x2="15" y2="28.9387"
                        gradientUnits="userSpaceOnUse">
            <stop stop-color="#878B92"/>
            <stop offset="1" stop-color="#656B73"/>
        </linearGradient>
        <linearGradient id="paint1_linear_1_376" x1="15" y1="1.06116" x2="15" y2="28.9387"
                        gradientUnits="userSpaceOnUse">
            <stop stop-color="#878B92"/>
            <stop offset="1" stop-color="#656B73"/>
        </linearGradient>
        <linearGradient id="paint2_linear_1_376" x1="15" y1="1.06116" x2="15" y2="28.9387"
                        gradientUnits="userSpaceOnUse">
            <stop stop-color="#878B92"/>
            <stop offset="1" stop-color="#656B73"/>
        </linearGradient>
        <linearGradient id="paint3_linear_1_376" x1="15" y1="1.06116" x2="15" y2="28.9387"
                        gradientUnits="userSpaceOnUse">
            <stop stop-color="#878B92"/>
            <stop offset="1" stop-color="#656B73"/>
        </linearGradient>
    </defs>
</svg>
