<svg width="36" height="36" viewBox="0 0 36 36" fill="none"
     xmlns="http://www.w3.org/2000/svg">
    <path d="M4.48125 35.88H21.2437V28.8375H8.1675V14.4188L17.895 7.71376L27.6187 14.415V20.79H34.6612V12.7388C34.6612 11.4 34.0875 10.1213 32.985 9.38626L19.9087 0.663762C18.5662 -0.228738 17.2237 -0.213738 15.8812 0.663762C12.3037 3.01876 4.74375 8.14501 3.13875 9.21751C1.52625 10.2938 1.125 11.5575 1.125 12.7425V32.5275C1.125 34.14 2.80125 35.88 4.4775 35.88H4.48125Z"
          fill="url(#paint0_linear_1_392)"/>
    <path d="M21.2475 35.8838V24.4575C21.2475 22.4325 22.8488 20.79 24.8288 20.79H34.6688L21.2438 35.8838H21.2475Z"
          fill="#FFDD2D"/>
    <defs>
        <linearGradient id="paint0_linear_1_392" x1="17.8931" y1="0" x2="17.8931"
                        y2="35.88" gradientUnits="userSpaceOnUse">
            <stop stop-color="#878B92"/>
            <stop offset="1" stop-color="#656B73"/>
        </linearGradient>
    </defs>
</svg>
