<svg width="180" height="21" viewBox="0 0 180 21" fill="none"
     xmlns="http://www.w3.org/2000/svg">
    <path d="M12.713 0.220947V5.63695H10.582C7.88999 5.63695 5.72099 7.77395 5.72099 10.4269C5.72099 13.0789 7.88999 15.2159 10.581 15.2159H12.713V20.6319C17.573 19.7109 21.201 15.5109 21.201 10.4259C21.201 5.37895 17.574 1.17895 12.713 0.220947Z"
          fill="#003791"/>
    <path d="M10.582 16.91C6.955 16.91 4 14 4 10.427C4 6.854 6.954 3.943 10.58 3.943H10.992V0H10.581C4.749 0 0 4.679 0 10.426C0 16.211 4.749 20.89 10.582 20.89H10.993V16.912H10.582V16.91Z"
          fill="#FC5055"/>
    <path d="M36.157 14.0739C35.3002 14.7671 34.231 15.1442 33.129 15.1419C30.474 15.1419 28.343 13.0419 28.343 10.4259C28.343 7.81095 30.473 5.71095 33.129 5.71095C34.2846 5.70599 35.4018 6.12514 36.269 6.88895L37.952 5.23195C36.6286 4.04058 34.9096 3.38371 33.129 3.38895C29.165 3.38895 25.987 6.55795 25.987 10.4259C25.987 14.2949 29.165 17.4999 33.129 17.4999C34.961 17.4999 36.606 16.8369 37.84 15.7319L36.157 14.0739ZM112.249 3.94195L106.977 10.2049L101.667 3.94195L101.63 4.01595V3.94195H99.498V16.9109H101.63V7.40495L106.977 13.6679L112.249 7.55295V16.9109H114.343V3.94195H112.249ZM53.806 10.4259C53.806 14.3319 50.59 17.4629 46.664 17.4629C42.701 17.4629 39.523 14.2949 39.523 10.4259C39.523 6.55795 42.738 3.38895 46.664 3.38895C50.59 3.38895 53.806 6.55795 53.806 10.4259ZM51.413 10.4259C51.413 7.81095 49.282 5.71095 46.627 5.71095C43.972 5.71095 41.841 7.81095 41.841 10.4259C41.841 13.0419 43.972 15.1419 46.627 15.1419C49.282 15.1419 51.413 13.0419 51.413 10.4259ZM97.33 10.4259C97.33 14.3319 94.114 17.4629 90.188 17.4629C86.224 17.4629 83.046 14.2949 83.046 10.4259C83.046 6.55795 86.262 3.38895 90.188 3.38895C94.151 3.38895 97.33 6.55795 97.33 10.4259ZM94.974 10.4259C94.974 7.81095 92.843 5.71095 90.188 5.71095C87.533 5.71095 85.402 7.81095 85.402 10.4259C85.402 13.0419 87.533 15.1419 90.188 15.1419C92.805 15.1419 94.974 13.0419 94.974 10.4259ZM83.009 3.94195H80.129L74.708 9.39495H72.502V3.94195H70.408V16.9109H72.502V11.4949H74.67L80.092 16.9109H82.934L76.503 10.4629L83.009 3.94195Z"
          fill="#003791"/>
    <path d="M171.7 3.94189H168.86L163.4 9.3949H161.194V3.94189H159.1V16.9109H161.194V11.4949H163.4L168.784 16.9109H171.626L165.232 10.4629L171.7 3.94189ZM140.74 16.9099H143.06L137.263 3.94189H134.87L129.075 16.9109H131.393L132.664 14.1109H139.47L140.74 16.9109V16.9099ZM133.6 12.0469L136.067 6.59489L138.535 12.0469H133.599H133.6Z"
          fill="#003791"/>
    <path d="M67.716 13.1529C67.7161 12.6403 67.6097 12.1332 67.4036 11.6638C67.1976 11.1944 66.8964 10.7729 66.519 10.4259C67.229 9.7259 67.716 8.7679 67.716 7.6999C67.7128 6.7009 67.3133 5.74401 66.6051 5.03939C65.8969 4.33477 64.938 3.94004 63.939 3.9419H56.237V16.9469H63.939C66.033 16.9109 67.716 15.2159 67.716 13.1529ZM58.368 6.0429H63.902C64.837 6.0429 65.584 6.7789 65.584 7.6999C65.584 8.6209 64.837 9.3579 63.902 9.3579H58.368V6.0419V6.0429ZM63.902 14.8469H58.368V11.4949H63.939C64.874 11.4949 65.622 12.2679 65.622 13.1529C65.584 14.0729 64.837 14.8469 63.902 14.8469Z"
          fill="#003791"/>
    <path d="M154.351 3.97889V9.3949H146.686V3.97889H144.555V16.8739H146.686V11.4939H154.351V16.8739H156.483V3.97889H154.351ZM128.327 13.1529C128.327 11.0889 126.607 9.3949 124.513 9.3949H118.979V6.04189H127.056V3.94189H116.848V16.9469H124.513C126.607 16.9109 128.327 15.2159 128.327 13.1529ZM124.513 14.8469H118.979V11.4949H124.513C125.448 11.4949 126.196 12.2679 126.196 13.1529C126.196 14.0729 125.448 14.8469 124.513 14.8469Z"
          fill="#003791"/>
</svg>
