<svg width="127" height="26" viewBox="0 0 127 26" fill="none"
     xmlns="http://www.w3.org/2000/svg">
    <g clip-path="url(#clip0_1_352)">
        <path d="M122.642 5.03613L118.32 9.89806V5.03613H115.182V17.3042H118.32V12.1286L122.956 17.3042H127L121.3 10.8739L126.582 5.03613H122.642Z"
              fill="#EF3124"/>
        <path d="M109.639 9.61924H105.316V5.03613H102.179V17.3042H105.316V12.4597H109.639V17.3042H112.777V5.03613H109.639V9.61924Z"
              fill="#EF3124"/>
        <path d="M18.616 11.6755C18.5462 13.9584 18.2499 14.4115 16.9601 14.4115V17.2868H17.4307C20.6379 17.2868 21.4049 15.6313 21.5269 11.9544L21.6489 7.87662H24.647V17.2868H27.7845V5.03613H18.8077L18.616 11.6755Z"
              fill="#EF3124"/>
        <path d="M35.6109 8.76536H33.3449V5.03613H30.2074V17.2868H35.6458C39.0622 17.2868 40.2823 15.0737 40.2823 12.9825C40.2823 10.2814 38.5915 8.76536 35.6109 8.76536ZM35.3669 14.6032H33.3449V11.4839H35.3669C36.4476 11.4839 37.1099 11.9544 37.1099 12.9825C37.1099 14.0978 36.4824 14.6032 35.3669 14.6032Z"
              fill="#EF3124"/>
        <path d="M50.4967 4.75736V0.209106H47.3592V4.75736C43.7685 5.05361 41.3456 7.61527 41.3456 11.1528C41.3456 14.7252 43.7685 17.2694 47.3592 17.5831V22.2011H50.4967V17.5831C54.0874 17.3043 56.5103 14.7252 56.5103 11.1528C56.5103 7.58042 54.0874 5.03618 50.4967 4.75736ZM47.3592 14.6206C45.6161 14.3767 44.5354 13.0697 44.5354 11.1528C44.5354 9.23592 45.6161 7.92895 47.3592 7.68498V14.6206ZM50.4967 14.6206V7.7024C52.2398 7.92895 53.3379 9.23592 53.3379 11.1528C53.3379 13.0697 52.2398 14.3767 50.4967 14.6206Z"
              fill="#EF3124"/>
        <path d="M68.276 13.5228V9.41021C68.276 6.41289 66.3586 4.51343 63.134 4.51343C59.8047 4.51343 58.0442 6.51745 57.8873 8.6086H61.0597C61.1643 8.15552 61.6523 7.37134 63.134 7.37134C64.3541 7.37134 65.1385 7.92898 65.1385 9.41021H62.0184C59.2295 9.41021 57.5736 10.874 57.5736 13.3137C57.5736 15.8579 59.3864 17.6006 62.001 17.6006C63.9183 17.6006 64.9816 16.6944 65.4348 16.0148C65.8531 16.8338 66.7595 17.3043 67.9623 17.3043H69.043V14.4638C68.4852 14.4638 68.276 14.2024 68.276 13.5228ZM65.1385 12.7212C65.1385 14.1327 64.1449 14.9343 62.8376 14.9343C61.7046 14.9343 60.8157 14.5161 60.8157 13.2963C60.8157 12.0939 61.7918 11.9022 62.6459 11.9022H65.1559V12.7212H65.1385Z"
              fill="#EF3124"/>
        <path d="M81.6976 6.77881H78.1941V3.31098H86.3168V0.209106H74.8997V17.3043H81.6976C85.4627 17.3043 87.6241 15.4397 87.6241 11.9893C87.6241 8.74798 85.4801 6.77881 81.6976 6.77881ZM81.5582 14.2024H78.2115V9.7587H81.5582C83.3013 9.7587 84.2774 10.5603 84.2774 11.9718C84.2774 13.4356 83.3013 14.2024 81.5582 14.2024Z"
              fill="#EF3124"/>
        <path d="M99.6338 13.5228V9.41021C99.6338 6.41289 97.7164 4.51343 94.4918 4.51343C91.1625 4.51343 89.402 6.51745 89.2451 8.6086H92.4175C92.5221 8.15552 93.0102 7.37134 94.4918 7.37134C95.7119 7.37134 96.4963 7.92898 96.4963 9.41021H93.3762C90.5873 9.41021 88.9314 10.874 88.9314 13.3137C88.9314 15.8579 90.7442 17.6006 93.3588 17.6006C95.2761 17.6006 96.3394 16.6944 96.7926 16.0148C97.211 16.8338 98.1174 17.3043 99.3201 17.3043H100.401V14.4638C99.843 14.4638 99.6338 14.2024 99.6338 13.5228ZM96.4963 12.7212C96.4963 14.1327 95.5028 14.9343 94.1955 14.9343C93.0625 14.9343 92.1735 14.5161 92.1735 13.2963C92.1735 12.0939 93.1496 11.9022 94.0037 11.9022H96.5137V12.7212H96.4963Z"
              fill="#EF3124"/>
        <path d="M16.7683 22.5148H0V26H16.7683V22.5148Z" fill="#EF3124"/>
        <path d="M11.4345 2.54424C10.9465 1.13271 10.4061 0 8.50617 0C6.62365 0 6.04844 1.11528 5.54295 2.54424L0.348602 17.3043H3.78245L4.98517 13.8016H11.6088L12.7244 17.3043H16.3848L11.4345 2.54424ZM5.99615 10.8217L8.34929 3.83378H8.43644L10.6501 10.8217H5.99615Z"
              fill="#EF3124"/>
    </g>
    <defs>
        <clipPath id="clip0_1_352">
            <rect width="127" height="26" fill="white"/>
        </clipPath>
    </defs>
</svg>
