<svg width="30" height="30" viewBox="0 0 30 30" fill="none"
     xmlns="http://www.w3.org/2000/svg">
    <g clip-path="url(#clip0_1_386)">
        <path d="M26.0792 7.74105C28.2123 7.74105 29.9415 6.00816 29.9415 3.87053C29.9415 1.73289 28.2123 0 26.0792 0C23.946 0 22.2168 1.73289 22.2168 3.87053C22.2168 6.00816 23.946 7.74105 26.0792 7.74105Z"
              fill="#FFDD2D"/>
        <path d="M21.0583 21.7009H23.543V24.1908H21.0583V21.7009Z"
              fill="url(#paint0_linear_1_386)"/>
        <path d="M16.5356 8.15877C17.0175 7.73033 17.6377 7.49444 18.2819 7.49444C18.9261 7.49444 19.5463 7.73039 20.0282 8.15877L20.7207 8.77436V6.57492C20.7207 2.95436 17.7814 0.0088501 14.1684 0.0088501C11.0036 0.0088501 8.35576 2.26899 7.7475 5.26313C8.74236 6.77737 10.4859 9.73723 11.2316 12.8738L16.5356 8.15877Z"
              fill="url(#paint1_linear_1_386)"/>
        <path d="M29.1228 28.2307H27.9112V19.8667L28.4822 20.3742C28.6492 20.5227 28.857 20.5957 29.064 20.5956C29.3061 20.5956 29.5472 20.4957 29.7205 20.2999C30.042 19.9368 30.0088 19.3812 29.6464 19.059L27.0749 16.7731V12.2174C27.0749 11.732 26.6821 11.3384 26.1977 11.3384C25.7132 11.3384 25.3205 11.732 25.3205 12.2174V15.2135L18.8639 9.47391C18.5317 9.17865 18.0318 9.17865 17.6997 9.47391L6.91728 19.059C6.55488 19.3811 6.52172 19.9367 6.84316 20.2999C7.16467 20.6631 7.71914 20.6962 8.08148 20.3741L8.65242 19.8666V28.2306H5.82141V24.3956C6.19611 24.2808 6.5567 24.0924 6.89812 23.8341V22.2838C6.37377 22.1603 5.89436 21.8773 5.53084 21.4666C4.56797 20.3789 4.66764 18.7089 5.75303 17.7439L9.71232 14.2243C9.04588 9.96369 5.80295 5.52146 5.64979 5.31369C5.48438 5.08939 5.22258 4.95703 4.94426 4.95703C4.66594 4.95703 4.40414 5.08939 4.23873 5.31369C4.06793 5.54531 0.0564258 11.0396 0.0564258 15.678C0.0564258 17.9419 0.506953 20.0841 1.32504 21.7099C2.04668 23.1441 2.99959 24.0693 4.06705 24.3957V28.2307H0.877207C0.392754 28.2307 0 28.6243 0 29.1097C0 29.5952 0.392754 29.9888 0.877207 30H29.1229C29.6073 29.9888 30.0001 29.5952 30.0001 29.1097C30.0001 28.6243 29.6072 28.2307 29.1228 28.2307ZM19.3039 20.8219C19.3039 20.3364 19.6967 19.9429 20.1812 19.9429H24.4202C24.9047 19.9429 25.2974 20.3364 25.2974 20.8219V25.0699C25.2974 25.5553 24.9047 25.9489 24.4202 25.9489H20.1812C19.6967 25.9489 19.3039 25.5553 19.3039 25.0699V20.8219ZM14.5005 28.2307V21.7009H12.7461V28.2307H10.9917V20.8219C10.9917 20.3364 11.3845 19.9429 11.8689 19.9429H15.3777C15.8621 19.9429 16.2549 20.3364 16.2549 20.8219V28.2307H14.5005Z"
              fill="url(#paint2_linear_1_386)"/>
    </g>
    <defs>
        <linearGradient id="paint0_linear_1_386" x1="15" y1="0" x2="15" y2="30"
                        gradientUnits="userSpaceOnUse">
            <stop stop-color="#878B92"/>
            <stop offset="1" stop-color="#656B73"/>
        </linearGradient>
        <linearGradient id="paint1_linear_1_386" x1="15" y1="0" x2="15" y2="30"
                        gradientUnits="userSpaceOnUse">
            <stop stop-color="#878B92"/>
            <stop offset="1" stop-color="#656B73"/>
        </linearGradient>
        <linearGradient id="paint2_linear_1_386" x1="15" y1="0" x2="15" y2="30"
                        gradientUnits="userSpaceOnUse">
            <stop stop-color="#878B92"/>
            <stop offset="1" stop-color="#656B73"/>
        </linearGradient>
        <clipPath id="clip0_1_386">
            <rect width="30" height="30" fill="white"/>
        </clipPath>
    </defs>
</svg>
