<svg width="30" height="30" viewBox="0 0 30 30" fill="none"
     xmlns="http://www.w3.org/2000/svg">
    <path d="M7.96875 14.1797C3.60709 14.1797 0.0585938 17.7282 0.0585938 22.0898C0.0585938 26.4515 3.60709 30 7.96875 30C12.3304 30 15.8789 26.4515 15.8789 22.0898C15.8789 17.7282 12.3304 14.1797 7.96875 14.1797ZM11.4613 21.1293L7.35973 25.2308C7.18816 25.4024 6.96322 25.4883 6.73828 25.4883C6.51334 25.4883 6.2884 25.4024 6.11684 25.2308L4.35902 23.473C4.01578 23.1298 4.01578 22.5733 4.35902 22.2301C4.70221 21.8869 5.25873 21.8869 5.60197 22.2301L6.73828 23.3664L10.2184 19.8863C10.5616 19.5431 11.1181 19.5431 11.4613 19.8863C11.8045 20.2296 11.8045 20.7861 11.4613 21.1293Z"
          fill="#FFDD2D"/>
    <path d="M23.2031 7.61719C22.7177 7.61719 22.3242 7.22367 22.3242 6.73828V0H9.72656C8.27268 0 7.08984 1.18283 7.08984 2.63672V12.4622C7.37941 12.436 7.67244 12.4219 7.96875 12.4219C10.9645 12.4219 13.6463 13.7916 15.4211 15.9375H24.9609C25.4463 15.9375 25.8398 16.331 25.8398 16.8164C25.8398 17.3018 25.4463 17.6953 24.9609 17.6953H16.579C17.1284 18.7673 17.4826 19.955 17.5963 21.2109H24.9609C25.4463 21.2109 25.8398 21.6045 25.8398 22.0898C25.8398 22.5752 25.4463 22.9688 24.9609 22.9688H17.5963C17.3335 25.8714 15.7826 28.4078 13.521 30H27.3047C28.7586 30 29.9414 28.8172 29.9414 27.3633V7.61719H23.2031ZM24.9609 12.4219H12.0703C11.5849 12.4219 11.1914 12.0284 11.1914 11.543C11.1914 11.0576 11.5849 10.6641 12.0703 10.6641H24.9609C25.4463 10.6641 25.8398 11.0576 25.8398 11.543C25.8398 12.0284 25.4463 12.4219 24.9609 12.4219Z"
          fill="url(#paint0_linear_1_381)"/>
    <path d="M24.082 0.514618V5.85936H29.4264L24.082 0.514618Z"
          fill="url(#paint1_linear_1_381)"/>
    <defs>
        <linearGradient id="paint0_linear_1_381" x1="15" y1="0" x2="15" y2="30"
                        gradientUnits="userSpaceOnUse">
            <stop stop-color="#878B92"/>
            <stop offset="1" stop-color="#656B73"/>
        </linearGradient>
        <linearGradient id="paint1_linear_1_381" x1="15" y1="0" x2="15" y2="30"
                        gradientUnits="userSpaceOnUse">
            <stop stop-color="#878B92"/>
            <stop offset="1" stop-color="#656B73"/>
        </linearGradient>
    </defs>
</svg>
